<svg xmlns="http://www.w3.org/2000/svg" xmlns:svg="http://www.w3.org/2000/svg" class="w-5 h-5" height="1em" width="1em">
    <g class="layer">
     <title>Layer 1</title>
     <path d="m10,9a3,3 0 1 0 0,-6a3,3 0 0 0 0,6zm-4,-1a2,2 0 1 1 -4,0a2,2 0 0 1 4,0zm-4.51,7.33a0.78,0.78 0 0 1 -0.36,-0.45a3,3 0 0 1 4.31,-3.51a6.48,6.48 0 0 0 -1.91,3.96c-0.02,0.22 -0.01,0.44 0.03,0.65a4.97,4.97 0 0 1 -2.07,-0.65zm14.95,0.65a4.97,4.97 0 0 0 2.07,-0.65a0.78,0.78 0 0 0 0.36,-0.45a3,3 0 0 0 -4.31,-3.51a6.48,6.48 0 0 1 1.91,3.96a2.32,2.32 0 0 1 -0.03,0.65zm1.56,-7.98a2,2 0 1 1 -4,0a2,2 0 0 1 4,0zm-12.7,8.19a0.84,0.84 0 0 1 -0.27,-0.71a5,5 0 0 1 9.94,0a0.84,0.84 0 0 1 -0.27,0.71a6.97,6.97 0 0 1 -4.7,1.81a6.97,6.97 0 0 1 -4.7,-1.81z" fill="#c3f9c3" id="svg_1"/>
    </g>
   </svg>