0<svg width="100" height="100" xmlns="http://www.w3.org/2000/svg" xmlns:svg="http://www.w3.org/2000/svg" xmlns:xlink="http://www.w3.org/1999/xlink" enable-background="new 0 0 100 100" version="1.1" xml:space="preserve">
    <!-- Created with SVGPlayground - https://svgplayground.com -->
    <defs>
        <symbol height="100px" id="svg_1" viewBox="0 0 24 24" width="100px" xmlns="http://www.w3.org/2000/svg">
            <title>Meetup icon</title>
            <path d="m6.98,0.55a0.52,0.52 0 0 0 -0.1,0.02c-0.29,0.06 -0.48,0.34 -0.41,0.63c0.06,0.28 0.34,0.47 0.63,0.41a0.53,0.53 0 0 0 0.41,-0.64c-0.06,-0.25 -0.28,-0.42 -0.53,-0.42zm6.46,0.64a0.98,0.98 0 0 0 -0.52,0.15c-0.47,0.28 -0.62,0.89 -0.34,1.36c0.28,0.46 0.89,0.62 1.36,0.34c0.47,-0.29 0.62,-0.89 0.34,-1.36a0.99,0.99 0 0 0 -0.84,-0.49zm-3.03,2.24c-0.98,0 -1.96,0.29 -2.82,0.89c-0.88,0.6 -1.5,1.43 -1.85,2.36c-0.51,0.07 -1.01,0.24 -1.46,0.55c-1.49,1.03 -1.89,3.04 -0.94,4.56c-1.29,1.18 -1.58,3.14 -0.61,4.65c0.58,0.9 1.49,1.44 2.47,1.6c0.02,0.73 0.24,1.46 0.68,2.11c1.23,1.77 3.66,2.22 5.43,0.99c0.06,-0.04 0.12,-0.1 0.18,-0.15c0.99,0.88 2.47,1.02 3.61,0.24c0.6,-0.42 0.99,-1.03 1.16,-1.69c0.89,0.03 1.8,-0.2 2.58,-0.74c1.9,-1.31 2.4,-3.86 1.19,-5.79c0.97,-0.82 1.18,-2.25 0.44,-3.31c-0.34,-0.47 -0.81,-0.78 -1.32,-0.93c0.08,-0.99 -0.17,-2 -0.78,-2.88c-1.17,-1.7 -3.33,-2.33 -5.19,-1.65a5.11,5.11 0 0 0 -2.77,-0.81zm-5.61,0.82a0.76,0.76 0 0 0 -0.42,0.13c-0.35,0.24 -0.43,0.71 -0.19,1.06c0.23,0.34 0.71,0.43 1.05,0.19a0.76,0.76 0 0 0 0.2,-1.06a0.76,0.76 0 0 0 -0.64,-0.32zm16,2.37a0.84,0.84 0 0 0 -0.47,0.15a0.85,0.85 0 1 0 1.17,0.21a0.85,0.85 0 0 0 -0.7,-0.36zm-8.15,1.02c0.06,0 0.12,0.01 0.18,0.02c0.23,0.03 0.36,0.12 0.45,0.19c0.17,0.13 0.27,0.24 0.43,0.39c0.24,0.23 0.41,0.09 0.53,0.02c0.21,-0.12 0.37,-0.22 0.99,-0.21c0.63,0.01 1.36,0.24 1.51,1.32c0.17,1.2 -1.96,4.29 -1.81,5.72c0.1,1.01 1.81,0.3 1.95,1.22c0.19,1.2 -2.13,0.75 -2.66,0.49c-0.83,-0.41 -1.34,-1.34 -1.12,-2.26c0.16,-0.69 1.7,-3.49 1.76,-3.93c0.05,-0.44 -0.18,-0.47 -0.33,-0.48c-0.19,-0.01 -0.34,0.08 -0.52,0.36c-0.17,0.26 -2.09,4.09 -2.25,4.4c-0.3,0.56 -0.67,0.69 -1.05,0.67c-0.54,-0.03 -0.79,-0.32 -0.72,-0.85c0.05,-0.31 1.26,-3.04 1.33,-3.47c0.04,-0.27 -0.02,-0.55 -0.28,-0.68c-0.26,-0.14 -0.57,0.07 -0.66,0.23c-0.13,0.21 -1.85,4.7 -2.03,5.03c-0.32,0.58 -0.65,0.76 -1.16,0.79c-1.18,0.05 -2.06,-0.92 -1.67,-2.12c0.17,-0.53 1.31,-4.57 1.89,-5.6c0.39,-0.69 1.47,-1.21 2.22,-0.89c0.38,0.17 0.92,0.44 1.08,0.51c0.37,0.16 0.76,-0.28 0.92,-0.41c0.15,-0.14 0.3,-0.28 0.49,-0.36c0.14,-0.06 0.34,-0.1 0.53,-0.1zm10.88,2.06a0.47,0.47 0 0 0 -0.1,0.01a0.47,0.47 0 0 0 -0.36,0.56a0.47,0.47 0 0 0 0.56,0.36c0.25,-0.06 0.42,-0.31 0.36,-0.56a0.47,0.47 0 0 0 -0.46,-0.37zm-22.52,0.81a1,1 0 0 0 -0.83,0.44c-0.32,0.45 -0.2,1.07 0.25,1.39c0.46,0.31 1.08,0.19 1.39,-0.26s0.2,-1.08 -0.25,-1.39a1,1 0 0 0 -0.56,-0.18zm21.29,2.1a0.64,0.64 0 0 0 -0.12,0.01a0.63,0.63 0 0 0 -0.48,0.75a0.63,0.63 0 0 0 0.74,0.48c0.34,-0.08 0.56,-0.41 0.48,-0.75a0.63,0.63 0 0 0 -0.62,-0.49zm-18.24,6.09a0.45,0.45 0 0 0 -0.09,0.01c-0.25,0.06 -0.41,0.31 -0.36,0.56c0.06,0.25 0.31,0.41 0.56,0.35a0.46,0.46 0 0 0 0.35,-0.55a0.47,0.47 0 0 0 -0.46,-0.37zm13.68,1.55a1.04,1.04 0 0 0 -0.59,0.19c-0.47,0.33 -0.59,0.98 -0.26,1.46c0.33,0.47 0.98,0.59 1.46,0.26c0.47,-0.33 0.59,-0.98 0.26,-1.46a1.04,1.04 0 0 0 -0.87,-0.45zm-6.34,1.9a0.64,0.64 0 0 0 -0.36,0.12a0.65,0.65 0 0 0 -0.16,0.9a0.65,0.65 0 0 0 0.9,0.16a0.65,0.65 0 0 0 0.16,-0.9a0.65,0.65 0 0 0 -0.54,-0.28z" id="svg_3"/>
        </symbol>
    </defs>
    <g class="layer">
        <title>Layer 1</title>
        <use fill="#c3f9c3" id="svg_2" xlink:href="#svg_1"/>
    </g>
</svg>