<svg width="1em" height="1em" xmlns="http://www.w3.org/2000/svg" xmlns:svg="http://www.w3.org/2000/svg">
 <g class="layer">
  <title>Layer 1</title>
  <path clip-rule="evenodd" d="m14,6a2.5,2.5 0 0 0 -4,-3a2.5,2.5 0 0 0 -4,3l-2.75,0c-0.69,0 -1.25,0.56 -1.25,1.25l0,0.5c0,0.69 0.56,1.25 1.25,1.25l6,0l0,-3l1.5,0l0,3l6,0c0.69,0 1.25,-0.56 1.25,-1.25l0,-0.5c0,-0.69 -0.56,-1.25 -1.25,-1.25l-2.75,0zm-1,-1.5a1,1 0 0 1 -1,1l-1,0l0,-1a1,1 0 1 1 2,0zm-6,0a1,1 0 0 0 1,1l1,0l0,-1a1,1 0 0 0 -2,0z" fill="#c3f9c3" fill-rule="evenodd" id="svg_1"/>
  <path d="m9.25,10.5l-6.25,0l0,4.75a2.75,2.75 0 0 0 2.75,2.75l3.5,0l0,-7.5zm1.5,7.5l0,-7.5l6.25,0l0,4.75a2.75,2.75 0 0 1 -2.75,2.75l-3.5,0z" fill="#c3f9c3" id="svg_2"/>
 </g>
</svg>