<svg fill="none" viewBox="0 0 24 24" xmlns="http://www.w3.org/2000/svg" height="1em" width="1em"><g fill="#c3f9c3"><path d="m7 14c0-.5523.44772-1 1-1 .55229 0 1 .4477 1 1s-.44771 1-1 1c-.55228 0-1-.4477-1-1z"/><path d="m8 17c-.55228 0-1 .4477-1 1s.44772 1 1 1c.55229 0 1-.4477 1-1s-.44771-1-1-1z"/><path d="m11 14c0-.5523.4477-1 1-1s1 .4477 1 1-.4477 1-1 1-1-.4477-1-1z"/><path d="m12 17c-.5523 0-1 .4477-1 1s.4477 1 1 1 1-.4477 1-1-.4477-1-1-1z"/><path d="m15 14c0-.5523.4477-1 1-1s1 .4477 1 1-.4477 1-1 1-1-.4477-1-1z"/><path d="m16 17c-.5523 0-1 .4477-1 1s.4477 1 1 1 1-.4477 1-1-.4477-1-1-1z"/><path clip-rule="evenodd" d="m6 2c0-.55228.44772-1 1-1s1 .44772 1 1v1h8v-1c0-.55228.4477-1 1-1s1 .44772 1 1v1h1c1.6569 0 3 1.34315 3 3v14c0 1.6569-1.3431 3-3 3h-14c-1.65685 0-3-1.3431-3-3v-14c0-1.65685 1.34315-3 3-3h1zm10 3v1c0 .55228.4477 1 1 1s1-.44772 1-1v-1h1c.5523 0 1 .44772 1 1v3h-16v-3c0-.55228.44772-1 1-1h1v1c0 .55228.44772 1 1 1s1-.44772 1-1v-1zm-12 6v9c0 .5523.44772 1 1 1h14c.5523 0 1-.4477 1-1v-9z" fill-rule="evenodd"/></g></svg>