<svg width="1em" height="1em" xmlns="http://www.w3.org/2000/svg" xmlns:xlink="http://www.w3.org/1999/xlink" xml:space="preserve"><defs><symbol id="a" viewBox="0 0 24 24" xmlns="http://www.w3.org/2000/svg"><path d="M6.98.55a.52.52 0 0 0-.1.02c-.29.06-.48.34-.41.63.06.28.34.47.63.41a.53.53 0 0 0 .41-.64.544.544 0 0 0-.53-.42zm6.46.64a.98.98 0 0 0-.52.15c-.47.28-.62.89-.34 1.36a1 1 0 0 0 1.36.34c.47-.29.62-.89.34-1.36a.99.99 0 0 0-.84-.49zm-3.03 2.24c-.98 0-1.96.29-2.82.89-.88.6-1.5 1.43-1.85 2.36-.51.07-1.01.24-1.46.55a3.37 3.37 0 0 0-.94 4.56 3.638 3.638 0 0 0-.61 4.65 3.6 3.6 0 0 0 2.47 1.6c.02.73.24 1.46.68 2.11 1.23 1.77 3.66 2.22 5.43.99.06-.04.12-.1.18-.15a2.93 2.93 0 0 0 3.61.24c.6-.42.99-1.03 1.16-1.69.89.03 1.8-.2 2.58-.74 1.9-1.31 2.4-3.86 1.19-5.79.97-.82 1.18-2.25.44-3.31-.34-.47-.81-.78-1.32-.93.08-.99-.17-2-.78-2.88a4.455 4.455 0 0 0-5.19-1.65 5.11 5.11 0 0 0-2.77-.81zm-5.61.82a.76.76 0 0 0-.42.13c-.35.24-.43.71-.19 1.06.23.34.71.43 1.05.19a.76.76 0 0 0 .2-1.06.76.76 0 0 0-.64-.32zm16 2.37a.84.84 0 0 0-.47.15.85.85 0 1 0 1.17.21.85.85 0 0 0-.7-.36zm-8.15 1.02c.06 0 .12.01.18.02.23.03.36.12.45.19.17.13.27.24.43.39.24.23.41.09.53.02.21-.12.37-.22.99-.21.63.01 1.36.24 1.51 1.32.17 1.2-1.96 4.29-1.81 5.72.1 1.01 1.81.3 1.95 1.22.19 1.2-2.13.75-2.66.49-.83-.41-1.34-1.34-1.12-2.26.16-.69 1.7-3.49 1.76-3.93.05-.44-.18-.47-.33-.48-.19-.01-.34.08-.52.36-.17.26-2.09 4.09-2.25 4.4-.3.56-.67.69-1.05.67-.54-.03-.79-.32-.72-.85.05-.31 1.26-3.04 1.33-3.47.04-.27-.02-.55-.28-.68-.26-.14-.57.07-.66.23-.13.21-1.85 4.7-2.03 5.03-.32.58-.65.76-1.16.79-1.18.05-2.06-.92-1.67-2.12.17-.53 1.31-4.57 1.89-5.6C7.8 8.2 8.88 7.68 9.63 8c.38.17.92.44 1.08.51.37.16.76-.28.92-.41.15-.14.3-.28.49-.36.14-.06.34-.1.53-.1zM23.53 9.7a.47.47 0 0 0-.1.01.47.47 0 0 0-.36.56.47.47 0 0 0 .56.36c.25-.06.42-.31.36-.56a.47.47 0 0 0-.46-.37zm-22.52.81a1 1 0 0 0-.83.44c-.32.45-.2 1.07.25 1.39.46.31 1.08.19 1.39-.26s.2-1.08-.25-1.39a1 1 0 0 0-.56-.18zm21.29 2.1a.64.64 0 0 0-.12.01.63.63 0 0 0-.48.75.63.63 0 0 0 .74.48c.34-.08.56-.41.48-.75a.63.63 0 0 0-.62-.49zM4.06 18.7a.45.45 0 0 0-.09.01c-.25.06-.41.31-.36.56.06.25.31.41.56.35a.46.46 0 0 0 .35-.55.47.47 0 0 0-.46-.37zm13.68 1.55a1.04 1.04 0 0 0-.59.19c-.47.33-.59.98-.26 1.46.33.47.98.59 1.46.26.47-.33.59-.98.26-1.46a1.04 1.04 0 0 0-.87-.45zm-6.34 1.9a.64.64 0 0 0-.36.12.65.65 0 0 0-.16.9.65.65 0 0 0 .9.16.65.65 0 0 0 .16-.9.65.65 0 0 0-.54-.28z"/></symbol></defs><use fill="#c3f9c3" xlink:href="#a" class="layer"/></svg>