<svg xmlns="http://www.w3.org/2000/svg" width="1em" height="1em" viewBox="0 0 24 24" desc=" generated:5776d7b6-9e24-11ee-b3dd-367dda6a4e78">
 <g class="layer">
  <title>Layer 1</title>
  <path clip-rule="evenodd" d="M 18.0,6.0 A 3.75,3.75 0.0 0,0 12.0,1.5 A 3.75,3.75 0.0 0,0 6.0,6.0 L 1.875,6.0 C 0.8399999999999999,6.0 0.0,6.84 0.0,7.875 L 0.0,8.625 C 0.0,9.66 0.8400000000000003,10.5 1.875,10.5 L 10.875,10.5 L 10.875,6.0 L 13.125,6.0 L 13.125,10.5 L 22.125,10.5 C 23.160000000000004,10.5 24.0,9.66 24.0,8.625 L 24.0,7.875 C 24.0,6.84 23.160000000000004,6.0 22.125,6.0 L 18.0,6.0 M 16.5,3.75 A 1.5,1.5 0.0 0,1 15.0,5.25 L 13.5,5.25 L 13.5,3.75 A 1.5,1.5 0.0 1,1 16.5,3.75 M 7.5,3.75 A 1.5,1.5 0.0 0,0 9.0,5.25 L 10.5,5.25 L 10.5,3.75 A 1.5,1.5 0.0 0,0 7.5,3.75" fill="#c3f9c3" fill-rule="evenodd" id="svg_1" />
  <path d="M 10.875,12.75 L 1.5,12.75 L 1.5,19.875 A 4.125,4.125 0.0 0,0 5.625,24.0 L 10.875,24.0 L 10.875,12.75 M 13.125,24.0 L 13.125,12.75 L 22.5,12.75 L 22.5,19.875 A 4.125,4.125 0.0 0,1 18.375,24.0 L 13.125,24.0" fill="#c3f9c3" id="svg_2" />
 </g>
</svg>